<svg width="146" height="48" viewBox="0 0 146 48" fill="none" xmlns="http://www.w3.org/2000/svg">
  <path d="M13.2778 22.3182C14.1 19.2499 17.2539 16.096 20.3222 15.2737L39.4512 10.1474C42.5194 9.3251 44.3402 11.1459 43.5179 14.2141L38.3916 33.3431C37.5693 36.4114 34.4154 39.5653 31.3471 40.3875L12.2181 45.5139C9.14988 46.3362 7.32913 44.5154 8.15139 41.4471L13.2778 22.3182Z" fill="#A3E635" fill-opacity="0.5"/>
  <path d="M5.60882 14.6493C6.43108 11.5811 9.58498 8.42717 12.6533 7.60491L31.7822 2.47854C34.8505 1.65628 36.6713 3.47702 35.849 6.54529L30.7226 25.6743C29.9004 28.7425 26.7465 31.8964 23.6782 32.7187L4.5492 37.8451C1.48093 38.6673 -0.339816 36.8466 0.482448 33.7783L5.60882 14.6493Z" fill="#A3E635"/>
  <!-- "flow" -->
  <path d="M56 30H62V34H51V14H56V30Z" fill="white"/>
  <path d="M63 26C63 24 63.5 22 64.5 20C65.5 18 67 16 69 15C71 14 73 14 75 14C77 14 78 14 79 15C80 16 81 17 81 18V14H86V34H81V31C80 32 79 33 77 34C76 34 74 34 72 34C70 34 68 34 67 33C65 32 64 30 63 28C63 27 63 26 63 26ZM81 26C81 24 80 23 78 22C77 21 75 21 73 21C72 21 71 22 70 23C69 24 68 25 68 26C68 28 69 29 70 30C71 31 73 31 75 31C76 31 78 30 79 29C80 28 81 27 81 26Z" fill="white"/>
  <path d="M92 18L85 34H80L83 28L78 18H82L85 24L88 18H92Z" fill="white"/>
  <path d="M102 18V34H97V18H102Z" fill="white"/>
  <!-- "Ai" -->
  <path d="M110 26C110 27 110 27 110 28H105C105 29 106 30 106 31C107 31 108 31 109 31C110 31 111 30 112 29H116C116 30 115 31 114 32C113 33 112 34 110 34C109 34 108 34 107 34C106 34 105 33 104 32C103 31 102 30 102 28C102 26 103 24 104 22C105 20 106 19 108 18C109 18 111 18 113 18C114 18 115 18 116 19C117 20 118 21 118 22C118 23 118 24 118 26ZM113 24C113 23 113 22 112 21C111 21 110 20 109 20C108 20 107 21 107 22C106 23 106 24 106 24H113Z" fill="white"/>
  <path d="M126 18V34H121V18H126Z" fill="white"/>
</svg>